# xmcd CD database file
#
# Track frame offsets:
#	150
#	26760
#	55270
#	83912
#	118987
#	145090
#	177905
#	211556
#	239122
#	268832
#	292500
#
# Disc length: 4039 seconds
#
# Revision: 0
# Processed by: cddbd v1.5.1PL0 Copyright (c) Steve Scherf et al.
# Submitted via: CDex 1.51
#
DISCID=9e0fc50b
DTITLE=Stephon Harris - Evolution
DYEAR=1900
DGENRE=Jazz
TTITLE0=New Artist - NOTHING PERSONAL
TTITLE1=New Artist - FOR HIM, FOR HER
TTITLE2=New Artist - UNTIL
TTITLE3=New Artist - RED-BONE, NETTI-BONE
TTITLE4=New Artist - A TOUCH OF GRACE
TTITLE5=New Artist - SUMMERTIME
TTITLE6=New Artist - BLACKOUT
TTITLE7=New Artist - THE LOST ONES
TTITLE8=New Artist - KING TUT
TTITLE9=New Artist - THE MESSAGE
TTITLE10=New Artist - MONTARA
EXTD=
EXTT0=
EXTT1=
EXTT2=
EXTT3=
EXTT4=
EXTT5=
EXTT6=
EXTT7=
EXTT8=
EXTT9=
EXTT10=
PLAYORDER=
